<svg width="1565" height="434" viewBox="0 0 1565 434" fill="none" xmlns="http://www.w3.org/2000/svg">
<path d="M192 41L48 105V201C78 282 114 340 192 393C268 342 297 301 336 201V105L192 41Z" fill="url(#paint0_linear_1_14)"/>
<path d="M417.2 111H467.9V277.5H552.2V321H417.2V111ZM608.314 216C608.314 228.4 610.714 239.4 615.514 249C620.514 258.4 627.414 265.8 636.214 271.2C645.214 276.6 655.714 279.3 667.714 279.3C679.514 279.3 689.814 276.6 698.614 271.2C707.614 265.8 714.514 258.4 719.314 249C724.314 239.4 726.814 228.4 726.814 216C726.814 203.6 724.414 192.7 719.614 183.3C714.814 173.7 708.014 166.2 699.214 160.8C690.414 155.4 679.914 152.7 667.714 152.7C655.714 152.7 645.214 155.4 636.214 160.8C627.414 166.2 620.514 173.7 615.514 183.3C610.714 192.7 608.314 203.6 608.314 216ZM554.614 216C554.614 199.8 557.414 185 563.014 171.6C568.814 158.2 576.814 146.6 587.014 136.8C597.214 127 609.214 119.5 623.014 114.3C636.814 108.9 651.714 106.2 667.714 106.2C683.914 106.2 698.814 108.9 712.414 114.3C726.214 119.5 738.214 127 748.414 136.8C758.614 146.6 766.514 158.2 772.114 171.6C777.714 185 780.514 199.8 780.514 216C780.514 232.2 777.714 247.1 772.114 260.7C766.714 274.3 758.914 286.1 748.714 296.1C738.714 306.1 726.814 313.9 713.014 319.5C699.214 324.9 684.114 327.6 667.714 327.6C651.114 327.6 635.914 324.9 622.114 319.5C608.314 313.9 596.314 306.1 586.114 296.1C576.114 286.1 568.314 274.3 562.714 260.7C557.314 247.1 554.614 232.2 554.614 216ZM782.919 156.3V111H949.119V156.3H891.219V321H840.519V156.3H782.919ZM986.183 233.1V187.5H1145.18V233.1H986.183ZM1113.08 111H1163.78V321H1113.08V111ZM972.083 111H1022.78V321H972.083V111ZM1240.92 280.5L1244.52 241.8H1348.62L1351.92 280.5H1240.92ZM1295.82 188.1L1266.42 255.9L1268.82 267L1242.72 321H1185.42L1295.82 97.8L1406.52 321H1348.92L1323.72 269.1L1325.52 256.2L1295.82 188.1ZM1428.53 111H1479.23V277.5H1563.53V321H1428.53V111Z" fill="#0E0E0E"/>
<defs>
<linearGradient id="paint0_linear_1_14" x1="48" y1="41" x2="336" y2="393" gradientUnits="userSpaceOnUse">
<stop stop-color="#367D88"/>
<stop offset="1" stop-color="#00333B"/>
</linearGradient>
</defs>
</svg>
